<?xml version="1.0" encoding="utf-8"?>
<svg version="1.1" xmlns:xlink="http://www.w3.org/1999/xlink" width="20px" height="17px" xmlns="http://www.w3.org/2000/svg">
  <g transform="matrix(1 0 0 1 -60 -139 )">
    <path d="M 9.00240384615385 1.45850914205345  C 9.15464743589743 1.60993905297703  9.23076923076923 1.78926394749179  9.23076923076923 1.99648382559775  L 9.23076923076923 15.0035161744023  C 9.23076923076923 15.2107360525082  9.15464743589743 15.390060947023  9.00240384615385 15.5414908579466  C 8.85016025641026 15.6929207688701  8.6698717948718 15.7686357243319  8.46153846153846 15.7686357243319  C 8.25320512820513 15.7686357243319  8.07291666666667 15.6929207688701  7.92067307692308 15.5414908579466  L 3.91826923076923 11.5604781997187  L 0.769230769230769 11.5604781997187  C 0.560897435897436 11.5604781997187  0.380608974358974 11.4847632442569  0.228365384615385 11.3333333333333  C 0.0761217948717949 11.1819034224097  0 11.002578527895  0 10.795358649789  L 0 6.20464135021097  C 0 5.99742147210502  0.0761217948717949 5.81809657759025  0.228365384615385 5.66666666666667  C 0.380608974358974 5.51523675574308  0.560897435897436 5.43952180028129  0.769230769230769 5.43952180028129  L 3.91826923076923 5.43952180028129  L 7.92067307692308 1.45850914205345  C 8.07291666666667 1.30707923112986  8.25320512820513 1.23136427566807  8.46153846153846 1.23136427566807  C 8.6698717948718 1.23136427566807  8.85016025641026 1.30707923112986  9.00240384615385 1.45850914205345  Z M 13.3353365384615 6.80239099859353  C 13.6758814102564 7.32841068917018  13.8461538461538 7.89428035630567  13.8461538461538 8.5  C 13.8461538461538 9.10571964369433  13.6758814102564 9.66959681200188  13.3353365384615 10.1916315049226  C 12.9947916666667 10.7136661978434  12.5440705128205 11.0862634786685  11.9831730769231 11.309423347398  C 11.9030448717949 11.3492733239569  11.8028846153846 11.3691983122363  11.6826923076923 11.3691983122363  C 11.474358974359 11.3691983122363  11.2940705128205 11.2954758556024  11.1418269230769 11.1480309423347  C 10.9895833333333 11.000586029067  10.9134615384615 10.8192686357243  10.9134615384615 10.6040787623066  C 10.9134615384615 10.4367088607595  10.9615384615385 10.2952414439756  11.0576923076923 10.179676511955  C 11.1538461538462 10.0641115799344  11.2700320512821 9.96448663853727  11.40625 9.88080168776371  C 11.542467948718 9.79711673699016  11.6786858974359 9.70546179090483  11.8149038461538 9.60583684950774  C 11.9511217948718 9.50621190811064  12.0673076923077 9.36275199249883  12.1634615384615 9.17545710267229  C 12.2596153846154 8.98816221284576  12.3076923076923 8.76300984528832  12.3076923076923 8.5  C 12.3076923076923 8.23699015471168  12.2596153846154 8.01183778715424  12.1634615384615 7.82454289732771  C 12.0673076923077 7.63724800750117  11.9511217948718 7.49378809188936  11.8149038461538 7.39416315049226  C 11.6786858974359 7.29453820909517  11.542467948718 7.20288326300985  11.40625 7.11919831223629  C 11.2700320512821 7.03551336146273  11.1538461538462 6.93588842006563  11.0576923076923 6.82032348804501  C 10.9615384615385 6.70475855602438  10.9134615384615 6.56329113924051  10.9134615384615 6.39592123769339  C 10.9134615384615 6.18073136427567  10.9895833333333 5.99941397093296  11.1418269230769 5.85196905766526  C 11.2940705128205 5.70452414439756  11.474358974359 5.63080168776371  11.6826923076923 5.63080168776371  C 11.8028846153846 5.63080168776371  11.9030448717949 5.65072667604313  11.9831730769231 5.69057665260197  C 12.5440705128205 5.90576652601969  12.9947916666667 6.27637130801688  13.3353365384615 6.80239099859353  Z M 15.9014423076923 5.12271448663854  C 16.5825320512821 6.15482887951242  16.9230769230769 7.28059071729958  16.9230769230769 8.5  C 16.9230769230769 9.71940928270042  16.5825320512821 10.8451711204876  15.9014423076923 11.8772855133615  C 15.2203525641026 12.9093999062353  14.3189102564103 13.6605719643694  13.1971153846154 14.1308016877637  C 13.0929487179487 14.1706516643225  12.9927884615385 14.190576652602  12.8966346153846 14.190576652602  C 12.6802884615385 14.190576652602  12.4959935897436 14.1148616971402  12.34375 13.9634317862166  C 12.1915064102564 13.812001875293  12.1153846153846 13.6326769807782  12.1153846153846 13.4254571026723  C 12.1153846153846 13.1146272855134  12.2716346153846 12.8795124238162  12.5841346153846 12.7201125175809  C 13.0328525641026 12.4889826535396  13.3373397435897 12.3136427566807  13.4975961538462 12.1940928270042  C 14.0905448717949 11.7637130801688  14.5532852564103 11.2237458977965  14.8858173076923 10.5741912798875  C 15.2183493589744 9.92463666197843  15.3846153846154 9.23323956868261  15.3846153846154 8.5  C 15.3846153846154 7.76676043131739  15.2183493589744 7.07536333802156  14.8858173076923 6.42580872011252  C 14.5532852564103 5.77625410220347  14.0905448717949 5.23628691983122  13.4975961538462 4.80590717299578  C 13.3373397435897 4.68635724331927  13.0328525641026 4.51101734646038  12.5841346153846 4.27988748241913  C 12.2716346153846 4.12048757618378  12.1153846153846 3.88537271448664  12.1153846153846 3.57454289732771  C 12.1153846153846 3.36732301922175  12.1915064102564 3.18799812470698  12.34375 3.0365682137834  C 12.4959935897436 2.88513830285982  12.6762820512821 2.80942334739803  12.8846153846154 2.80942334739803  C 12.9887820512821 2.80942334739803  13.0929487179487 2.82934833567745  13.1971153846154 2.86919831223629  C 14.3189102564103 3.33942803563057  15.2203525641026 4.09060009376465  15.9014423076923 5.12271448663854  Z M 18.4735576923077 3.44901547116737  C 19.4911858974359 4.98323956868261  20 6.66690107829348  20 8.5  C 20 10.3330989217065  19.4911858974359 12.0167604313174  18.4735576923077 13.5509845288326  C 17.4559294871795 15.0852086263479  16.1017628205128 16.2149554617909  14.4110576923077 16.9402250351617  C 14.306891025641 16.9800750117206  14.2027243589744 17  14.0985576923077 17  C 13.8902243589744 17  13.7099358974359 16.9242850445382  13.5576923076923 16.7728551336146  C 13.4054487179487 16.621425222691  13.3293269230769 16.4421003281763  13.3293269230769 16.2348804500703  C 13.3293269230769 15.9479606188467  13.4855769230769 15.7128457571496  13.7980769230769 15.5295358649789  C 13.8541666666667 15.4976558837318  13.9443108974359 15.4558134083451  14.0685096153846 15.4040084388186  C 14.1927083333333 15.3522034692921  14.2828525641026 15.3103609939053  14.3389423076923 15.2784810126582  C 14.7075320512821 15.079231129864  15.0360576923077 14.875996249414  15.3245192307692 14.668776371308  C 16.3100961538462 13.9435067979372  17.0793269230769 13.0389123300516  17.6322115384615 11.9549929676512  C 18.1850961538462 10.8710736052508  18.4615384615385 9.71940928270042  18.4615384615385 8.5  C 18.4615384615385 7.28059071729958  18.1850961538462 6.12892639474918  17.6322115384615 5.0450070323488  C 17.0793269230769 3.96108766994843  16.3100961538462 3.05649320206282  15.3245192307692 2.33122362869198  C 15.0360576923077 2.12400375058603  14.7075320512821 1.92076887013596  14.3389423076923 1.72151898734177  C 14.2828525641026 1.6896390060947  14.1927083333333 1.64779653070792  14.0685096153846 1.59599156118143  C 13.9443108974359 1.54418659165494  13.8541666666667 1.50234411626817  13.7980769230769 1.4704641350211  C 13.4855769230769 1.28715424285044  13.3293269230769 1.0520393811533  13.3293269230769 0.765119549929677  C 13.3293269230769 0.55789967182372  13.4054487179487 0.378574777308953  13.5576923076923 0.227144866385372  C 13.7099358974359 0.0757149554617902  13.8902243589744 0  14.0985576923077 0  C 14.2027243589744 0  14.306891025641 0.0199249882794176  14.4110576923077 0.0597749648382565  C 16.1017628205128 0.785044538209093  17.4559294871795 1.91479137365213  18.4735576923077 3.44901547116737  Z " fill-rule="nonzero" fill="#00b8ad" stroke="none" transform="matrix(1 0 0 1 60 139 )" />
  </g>
</svg>