<?xml version="1.0" encoding="utf-8"?>
<svg version="1.1" xmlns:xlink="http://www.w3.org/1999/xlink" width="40px" height="40px" xmlns="http://www.w3.org/2000/svg">
  <g transform="matrix(1 0 0 1 -18 -128 )">
    <path d="M 38 128  C 49.2 128  58 136.8  58 148  C 58 159.2  49.2 168  38 168  C 26.8 168  18 159.2  18 148  C 18 136.8  26.8 128  38 128  Z " fill-rule="nonzero" fill="#ffffff" stroke="none" />
    <path d="M 38 128.5  C 48.92 128.5  57.5 137.08  57.5 148  C 57.5 158.92  48.92 167.5  38 167.5  C 27.08 167.5  18.5 158.92  18.5 148  C 18.5 137.08  27.08 128.5  38 128.5  Z " stroke-width="1" stroke="#797979" fill="none" />
  </g>
</svg>