<?xml version="1.0" encoding="utf-8"?>
<svg version="1.1" xmlns:xlink="http://www.w3.org/1999/xlink" width="101px" height="65px" xmlns="http://www.w3.org/2000/svg">
  <g transform="matrix(1 0 0 1 -22 -175 )">
    <path d="M 22 175  L 123 175  L 123 240  L 22 240  L 22 175  " fill-rule="nonzero" fill="#cccccc" stroke="none" />
    <path d="M 27 180  L 118 180  L 118 235  L 27 235  L 27 180  " fill-rule="nonzero" fill="#ffffff" stroke="none" />
    <path d="M 79.395 194.5  C 76.665 194.5  74.52 192.355  74.52 189.625  C 74.52 186.895  76.665 184.75  79.395 184.75  C 82.125 184.75  84.27 186.895  84.27 189.625  C 84.27 192.355  82.125 194.5  79.395 194.5  " fill-rule="nonzero" fill="#cccccc" stroke="none" />
    <path d="M 29 234  L 29 205.4  L 51 192.4  L 81.8 213.920792079208  L 99.4 200.2  L 117 213.920792079208  L 117 234  L 29 234  " fill-rule="nonzero" fill="#169bd5" stroke="none" />
  </g>
</svg>