<?xml version="1.0" encoding="utf-8"?>
<svg version="1.1" xmlns:xlink="http://www.w3.org/1999/xlink" width="39px" height="36px" xmlns="http://www.w3.org/2000/svg">
  <g transform="matrix(1 0 0 1 -867 -75 )">
    <path d="M 867 75  L 906 75  L 906 111  L 867 111  L 867 75  " fill-rule="nonzero" fill="#cccccc" stroke="none" />
    <path d="M 870 78  L 903 78  L 903 108  L 870 108  L 870 78  " fill-rule="nonzero" fill="#ffffff" stroke="none" />
    <path d="M 889.98 85.8  C 888.468 85.8  887.28 84.612  887.28 83.1  C 887.28 81.588  888.468 80.4  889.98 80.4  C 891.492 80.4  892.68 81.588  892.68 83.1  C 892.68 84.612  891.492 85.8  889.98 85.8  " fill-rule="nonzero" fill="#cccccc" stroke="none" />
    <path d="M 871 107  L 871 91.6  L 878.75 84.6  L 889.6 91.4923076923077  L 895.8 88.8  L 902 91.4923076923077  L 902 107  L 871 107  " fill-rule="nonzero" fill="#169bd5" stroke="none" />
  </g>
</svg>