<?xml version="1.0" encoding="utf-8"?>
<svg version="1.1" xmlns:xlink="http://www.w3.org/1999/xlink" width="15px" height="14px" xmlns="http://www.w3.org/2000/svg">
  <g transform="matrix(1 0 0 1 -869 -144 )">
    <path d="M 6.75180288461538 1.20112517580872  C 6.86598557692308 1.3258321612752  6.92307692307692 1.47351148616971  7 1.64416315049226  L 7 12.3558368495077  C 6.92307692307692 12.5264885138303  6.86598557692308 12.6741678387248  6.75180288461538 12.7988748241913  C 6.63762019230769 12.9235818096578  6.50240384615385 12.985935302391  6.34615384615385 12.985935302391  C 6.18990384615385 12.985935302391  6.0546875 12.9235818096578  5.94050480769231 12.7988748241913  L 2.93870192307692 9.52039381153305  L 0.576923076923077 9.52039381153305  C 0.420673076923077 9.52039381153305  0.285456730769231 9.45804031879981  0.171274038461538 9.33333333333333  C 0.0570913461538462 9.20862634786685  0 9.06094702297234  0 8.89029535864979  L 0 5.10970464135021  C 0 4.93905297702766  0.0570913461538462 4.79137365213314  0.171274038461538 4.66666666666667  C 0.285456730769231 4.54195968120019  0.420673076923077 4.47960618846695  0.576923076923077 4.47960618846695  L 2.93870192307692 4.47960618846695  L 5.94050480769231 1.20112517580872  C 6.0546875 1.07641819034224  6.18990384615385 1.014064697609  6.34615384615385 1.014064697609  C 6.50240384615385 1.014064697609  6.63762019230769 1.07641819034224  6.75180288461538 1.20112517580872  Z M 10.0015024038462 5.60196905766526  C 10.2569110576923 6.0351617440225  10.3846153846154 6.50117205813408  10.3846153846154 7  C 10.3846153846154 7.49882794186592  10.2569110576923 7.96319737458978  10.0015024038462 8.39310829817159  C 9.74609375 8.8230192217534  9.40805288461539 9.12986404125644  8.98737980769231 9.31364275668073  C 8.92728365384616 9.34646038443507  8.85216346153846 9.36286919831224  8.76201923076923 9.36286919831224  C 8.60576923076923 9.36286919831224  8.47055288461539 9.30215658696671  8.35637019230769 9.18073136427567  C 8.2421875 9.05930614158462  8.18509615384615 8.90998593530239  8.18509615384615 8.73277074542897  C 8.18509615384615 8.59493670886076  8.22115384615385 8.47843413033286  8.29326923076923 8.38326300984529  C 8.36538461538461 8.28809188935771  8.45252403846154 8.20604781997187  8.5546875 8.13713080168776  C 8.65685096153846 8.06821378340366  8.75901442307692 7.99273323956868  8.86117788461539 7.91068917018284  C 8.96334134615385 7.828645100797  9.05048076923077 7.71050164088139  9.12259615384615 7.556258790436  C 9.19471153846154 7.40201593999062  9.23076923076923 7.21659634317862  9.23076923076923 7  C 9.23076923076923 6.78340365682138  9.19471153846154 6.59798406000938  9.12259615384615 6.44374120956399  C 9.05048076923077 6.28949835911861  8.96334134615385 6.171354899203  8.86117788461539 6.08931082981716  C 8.75901442307692 6.00726676043132  8.65685096153846 5.93178621659634  8.5546875 5.86286919831224  C 8.45252403846154 5.79395218002813  8.36538461538461 5.71190811064229  8.29326923076923 5.61673699015471  C 8.22115384615385 5.52156586966713  8.18509615384615 5.40506329113924  8.18509615384615 5.26722925457103  C 8.18509615384615 5.09001406469761  8.2421875 4.94069385841538  8.35637019230769 4.81926863572433  C 8.47055288461539 4.69784341303329  8.60576923076923 4.63713080168776  8.76201923076923 4.63713080168776  C 8.85216346153846 4.63713080168776  8.92728365384616 4.65353961556493  8.98737980769231 4.68635724331927  C 9.40805288461539 4.86357243319269  9.74609375 5.16877637130802  10.0015024038462 5.60196905766526  Z M 11.9260817307692 4.21870604781997  C 12.4368990384615 5.06868260665729  12.6923076923077 5.9957805907173  12.6923076923077 7  C 12.6923076923077 8.0042194092827  12.4368990384615 8.93131739334271  11.9260817307692 9.78129395218003  C 11.4152644230769 10.6312705110173  10.7391826923077 11.2498827941866  9.89783653846154 11.6371308016878  C 9.81971153846154 11.6699484294421  9.74459134615385 11.6863572433193  9.67247596153846 11.6863572433193  C 9.51021634615385 11.6863572433193  9.37199519230769 11.624003750586  9.2578125 11.4992967651195  C 9.14362980769231 11.3745897796531  9.08653846153846 11.2269104547586  9.08653846153846 11.056258790436  C 9.08653846153846 10.8002812939522  9.20372596153846 10.6066572902016  9.43810096153846 10.4753867791842  C 9.77463942307693 10.2850445382091  10.0030048076923 10.14064697609  10.1231971153846 10.042194092827  C 10.5679086538462 9.68776371308017  10.9149639423077 9.24308485700891  11.1643629807692 8.70815752461322  C 11.4137620192308 8.17323019221753  11.5384615384615 7.60384435067979  11.5384615384615 7  C 11.5384615384615 6.3961556493202  11.4137620192308 5.82676980778247  11.1643629807692 5.29184247538678  C 10.9149639423077 4.75691514299109  10.5679086538462 4.31223628691983  10.1231971153846 3.957805907173  C 10.0030048076923 3.85935302390999  9.77463942307693 3.7149554617909  9.43810096153846 3.52461322081575  C 9.20372596153846 3.3933427097984  9.08653846153846 3.19971870604782  9.08653846153846 2.94374120956399  C 9.08653846153846 2.77308954524144  9.14362980769231 2.62541022034693  9.2578125 2.50070323488045  C 9.37199519230769 2.37599624941397  9.50721153846154 2.31364275668073  9.66346153846154 2.31364275668073  C 9.74158653846154 2.31364275668073  9.81971153846154 2.3300515705579  9.89783653846154 2.36286919831224  C 10.7391826923077 2.75011720581341  11.4152644230769 3.36872948898265  11.9260817307692 4.21870604781997  Z M 13.8551682692308 2.84036568213783  C 14.6183894230769 4.10384435067979  15 5.49038912330051  15 7  C 15 8.50961087669948  14.6183894230769 9.8961556493202  13.8551682692308 11.1596343178622  C 13.0919471153846 12.4231129864041  12.0763221153846 13.3534927332396  10.8082932692308 13.9507735583685  C 10.7301682692308 13.9835911861228  10.6520432692308 14  10.5739182692308 14  C 10.4176682692308 14  10.2824519230769 13.9376465072668  10.1682692307692 13.8129395218003  C 10.0540865384615 13.6882325363338  9.99699519230769 13.5405532114393  9.99699519230769 13.3699015471167  C 9.99699519230769 13.1336146272855  10.1141826923077 12.9399906235349  10.3485576923077 12.789029535865  C 10.390625 12.7627754336615  10.4582331730769 12.7283169245195  10.5513822115385 12.6856540084388  C 10.64453125 12.6429910923582  10.7121394230769 12.6085325832161  10.7542067307692 12.5822784810127  C 11.0306490384615 12.418190342241  11.2770432692308 12.2508204406939  11.4933894230769 12.0801687763713  C 12.2325721153846 11.4828879512424  12.8094951923077 10.7379278012189  13.2241586538462 9.84528832630098  C 13.6388221153846 8.95264885138303  13.8461538461538 8.0042194092827  13.8461538461538 7  C 13.8461538461538 5.9957805907173  13.6388221153846 5.04735114861697  13.2241586538462 4.15471167369902  C 12.8094951923077 3.26207219878106  12.2325721153846 2.51711204875762  11.4933894230769 1.91983122362869  C 11.2770432692308 1.74917955930614  11.0306490384615 1.58180965775902  10.7542067307692 1.41772151898734  C 10.7121394230769 1.39146741678387  10.64453125 1.35700890764182  10.5513822115385 1.31434599156118  C 10.4582331730769 1.27168307548054  10.390625 1.23722456633849  10.3485576923077 1.21097046413502  C 10.1141826923077 1.06000937646507  9.99699519230769 0.866385372714486  9.99699519230769 0.630098452883264  C 9.99699519230769 0.459446788560711  10.0540865384615 0.311767463666196  10.1682692307692 0.187060478199718  C 10.2824519230769 0.062353492733239  10.4176682692308 0  10.5739182692308 0  C 10.6520432692308 0  10.7301682692308 0.0164088138771674  10.8082932692308 0.0492264416315054  C 12.0763221153846 0.646507266760429  13.0919471153846 1.57688701359587  13.8551682692308 2.84036568213783  Z " fill-rule="nonzero" fill="#00b8ad" stroke="none" transform="matrix(1 0 0 1 869 144 )" />
  </g>
</svg>