<?xml version="1.0" encoding="utf-8"?>
<svg version="1.1" xmlns:xlink="http://www.w3.org/1999/xlink" width="70px" height="20px" xmlns="http://www.w3.org/2000/svg">
  <defs>
    <mask fill="white" id="clip6">
      <path d="M 0 15  L 0 5  C 0 2.19999999999999  2.19999999999999 0  5 0  L 65 0  C 67.8 0  70 2.19999999999999  70 5  L 70 15  C 70 17.8  67.8 20  65 20  L 29 20  L 5 20  C 2.19999999999999 20  0 17.8  0 15  Z " fill-rule="evenodd" />
    </mask>
  </defs>
  <g transform="matrix(1 0 0 1 -379 -132 )">
    <path d="M 0 15  L 0 5  C 0 2.19999999999999  2.19999999999999 0  5 0  L 65 0  C 67.8 0  70 2.19999999999999  70 5  L 70 15  C 70 17.8  67.8 20  65 20  L 29 20  L 5 20  C 2.19999999999999 20  0 17.8  0 15  Z " fill-rule="nonzero" fill="#ffffff" stroke="none" transform="matrix(1 0 0 1 379 132 )" />
    <path d="M 0 15  L 0 5  C 0 2.19999999999999  2.19999999999999 0  5 0  L 65 0  C 67.8 0  70 2.19999999999999  70 5  L 70 15  C 70 17.8  67.8 20  65 20  L 29 20  L 5 20  C 2.19999999999999 20  0 17.8  0 15  Z " stroke-width="2" stroke="#797979" fill="none" transform="matrix(1 0 0 1 379 132 )" mask="url(#clip6)" />
  </g>
</svg>