<?xml version="1.0" encoding="utf-8"?>
<svg version="1.1" xmlns:xlink="http://www.w3.org/1999/xlink" width="204px" height="114px" xmlns="http://www.w3.org/2000/svg">
  <g transform="matrix(1 0 0 1 -21 -101 )">
    <path d="M 21 101  L 225 101  L 225 215  L 21 215  L 21 101  " fill-rule="nonzero" fill="#cccccc" stroke="none" />
    <path d="M 29 109  L 217 109  L 217 207  L 29 207  L 29 109  " fill-rule="nonzero" fill="#ffffff" stroke="none" />
    <path d="M 135.63 135.2  C 130.842 135.2  127.08 131.438  127.08 126.65  C 127.08 121.862  130.842 118.1  135.63 118.1  C 140.418 118.1  144.18 121.862  144.18 126.65  C 144.18 131.438  140.418 135.2  135.63 135.2  " fill-rule="nonzero" fill="#cccccc" stroke="none" />
    <path d="M 32 204  L 32 153.4  L 77.5 130.4  L 141.2 173.152941176471  L 177.6 144.2  L 214 173.152941176471  L 214 204  L 32 204  " fill-rule="nonzero" fill="#169bd5" stroke="none" />
  </g>
</svg>