<?xml version="1.0" encoding="utf-8"?>
<svg version="1.1" xmlns:xlink="http://www.w3.org/1999/xlink" width="91px" height="48px" xmlns="http://www.w3.org/2000/svg">
  <g transform="matrix(1 0 0 1 -869 -89 )">
    <path d="M 869 89  L 960 89  L 960 137  L 869 137  L 869 89  " fill-rule="nonzero" fill="#cccccc" stroke="none" />
    <path d="M 872 92  L 957 92  L 957 134  L 872 134  L 872 92  " fill-rule="nonzero" fill="#ffffff" stroke="none" />
    <path d="M 919.92 103.4  C 917.904 103.4  916.32 101.816  916.32 99.8  C 916.32 97.784  917.904 96.2  919.92 96.2  C 921.936 96.2  923.52 97.784  923.52 99.8  C 923.52 101.816  921.936 103.4  919.92 103.4  " fill-rule="nonzero" fill="#cccccc" stroke="none" />
    <path d="M 873 133  L 873 111  L 893.75 101  L 922.8 120.340659340659  L 939.4 107  L 956 120.340659340659  L 956 133  L 873 133  " fill-rule="nonzero" fill="#169bd5" stroke="none" />
  </g>
</svg>