<?xml version="1.0" encoding="utf-8"?>
<svg version="1.1" xmlns:xlink="http://www.w3.org/1999/xlink" width="20px" height="29px" xmlns="http://www.w3.org/2000/svg">
  <g transform="matrix(1 0 0 1 -113 -309 )">
    <path d="M 20 11.78125  C 20 11.280546875  19.5931818181818 10.875  19.0909090909091 10.875  L 18.1818181818182 10.875  C 17.6795454545455 10.875  17.2727272727273 11.280546875  17.2727272727273 11.78125  L 17.2727272727273 14.5  C 17.2727272727273 18.73671875  13.6085227272727 22.1362890625  9.27329545454545 21.7148828125  C 5.49488636363636 21.34728515625  2.72727272727273 17.96130859375  2.72727272727273 14.1771484375  L 2.72727272727273 11.78125  C 2.72727272727273 11.280546875  2.32045454545455 10.875  1.81818181818182 10.875  L 0.909090909090909 10.875  C 0.406818181818182 10.875  0 11.280546875  0 11.78125  L 0 14.0559375  C 0 19.133203125  3.63465909090909 23.65935546875  8.63636363636364 24.34697265625  L 8.63636363636364 26.28125  L 5.45454545454545 26.28125  C 4.95227272727273 26.28125  4.54545454545454 26.686796875  4.54545454545454 27.1875  L 4.54545454545454 28.09375  C 4.54545454545454 28.594453125  4.95227272727273 29  5.45454545454545 29  L 14.5454545454545 29  C 15.0477272727273 29  15.4545454545455 28.594453125  15.4545454545455 28.09375  L 15.4545454545455 27.1875  C 15.4545454545455 26.686796875  15.0477272727273 26.28125  14.5454545454545 26.28125  L 11.3636363636364 26.28125  L 11.3636363636364 24.36849609375  C 16.2335227272727 23.70240234375  20 19.5353515625  20 14.5  L 20 11.78125  Z M 4.54545454545454 14.5  C 4.54545454545454 17.5030859375  6.9875 19.9375  10 19.9375  C 13.0125 19.9375  15.4545454545455 17.5030859375  15.4545454545455 14.5  L 10.60625 14.5  C 10.2715909090909 14.5  10 14.2972265625  10 14.046875  L 10 13.140625  C 10 12.8902734375  10.2715909090909 12.6875  10.60625 12.6875  L 15.4545454545455 12.6875  L 15.4545454545455 10.875  L 10.60625 10.875  C 10.2715909090909 10.875  10 10.6722265625  10 10.421875  L 10 9.515625  C 10 9.2652734375  10.2715909090909 9.0625  10.60625 9.0625  L 15.4545454545455 9.0625  L 15.4545454545455 7.25  L 10.60625 7.25  C 10.2715909090909 7.25  10 7.0472265625  10 6.796875  L 10 5.890625  C 10 5.6402734375  10.2715909090909 5.4375  10.60625 5.4375  L 15.4545454545455 5.4375  C 15.4545454545455 2.4344140625  13.0125 0  10 0  C 6.9875 0  4.54545454545454 2.4344140625  4.54545454545454 5.4375  L 4.54545454545454 14.5  Z " fill-rule="nonzero" fill="#000000" stroke="none" transform="matrix(1 0 0 1 113 309 )" />
  </g>
</svg>