<?xml version="1.0" encoding="utf-8"?>
<svg version="1.1" xmlns:xlink="http://www.w3.org/1999/xlink" width="25px" height="30px" xmlns="http://www.w3.org/2000/svg">
  <g transform="matrix(1 0 0 1 -368 -249 )">
    <path d="M 6.94444444444444 9.54545454545455  L 6.94444444444444 14  L 18.0555555555556 14  L 18.0555555555556 9.54545454545455  C 18.0555555555556 8.03977272727273  17.5130208333333 6.75426136363636  16.4279513888889 5.68892045454545  C 15.3428819444444 4.62357954545455  14.0335648148148 4.09090909090909  12.5 4.09090909090909  C 10.9664351851852 4.09090909090909  9.65711805555556 4.62357954545455  8.57204861111111 5.68892045454545  C 7.48697916666667 6.75426136363636  6.94444444444444 8.03977272727273  6.94444444444444 9.54545454545455  Z M 24.3923611111111 14.2329545454545  C 24.7974537037037 14.6306818181818  25 15.1136363636364  25 15.6818181818182  L 25 27.9545454545455  C 25 28.5227272727273  24.7974537037037 29.0056818181818  24.3923611111111 29.4034090909091  C 23.9872685185185 29.8011363636364  23.4953703703704 30  22.9166666666667 30  L 2.08333333333333 30  C 1.50462962962963 30  1.01273148148148 29.8011363636364  0.607638888888889 29.4034090909091  C 0.202546296296296 29.0056818181818  0 28.5227272727273  0 27.9545454545455  L 0 15.6818181818182  C 0 15.1136363636364  0.202546296296296 14.6306818181818  0.607638888888889 14.2329545454545  C 1.01273148148148 13.8352272727273  1.50462962962963 13.6363636363636  2.08333333333333 13.6363636363636  L 2.77777777777778 13.6363636363636  L 2.77777777777778 9.54545454545455  C 2.77777777777778 6.93181818181818  3.73263888888889 4.6875  5.64236111111111 2.8125  C 7.55208333333333 0.9375  9.83796296296296 0  12.5 0  C 15.162037037037 0  17.4479166666667 0.9375  19.3576388888889 2.8125  C 21.2673611111111 4.6875  22.2222222222222 6.93181818181818  22.2222222222222 9.54545454545455  L 22.2222222222222 13.6363636363636  L 22.9166666666667 13.6363636363636  C 23.4953703703704 13.6363636363636  23.9872685185185 13.8352272727273  24.3923611111111 14.2329545454545  Z " fill-rule="nonzero" fill="#aaaaaa" stroke="none" transform="matrix(1 0 0 1 368 249 )" />
  </g>
</svg>