<?xml version="1.0" encoding="utf-8"?>
<svg version="1.1" xmlns:xlink="http://www.w3.org/1999/xlink" width="40px" height="31px" xmlns="http://www.w3.org/2000/svg">
  <g transform="matrix(1 0 0 1 -386 -892 )">
    <path d="M 40 2.19209354120267  C 40 0.96935412026726  38.9333333333333 0.000690423162583627  37.6541666666667 0.0724944320712693  C 33.8486111111111 0.287216035634744  26.2847222222222 1.06877505567929  21.6152777777778 3.91055679287305  C 21.2930555555556 4.10663697104677  21.1104166666667 4.45530066815145  21 4.81984409799555  L 21 29.9422717149221  C 21.1104166666667 30.739710467706  21.9875 31.243719376392  22.7270833333333 30.8736525612472  C 27.53125 28.4695991091314  34.4791666666667 27.8136971046771  37.9145833333333 27.6341870824053  C 39.0875 27.5727394209354  39.9993055555556 26.6379064587973  40 25.5173496659243  L 40 2.19209354120267  Z M 19 4.80741648106904  C 18.8888888888889 4.44218262806236  18.7069444444444 4.10732739420935  18.3840277777778 3.91055679287305  C 13.7152777777778 1.06877505567929  6.15138888888889 0.287906458797328  2.34583333333333 0.0724944320712693  C 1.06666666666667 0.000690423162583627  0 0.96935412026726  0 2.19209354120267  L 0 25.5180400890869  C 0 26.6392873051225  0.911805555555556 27.5741202672606  2.08472222222222 27.6348775055679  C 5.52152777777778 27.8143875278396  12.4729166666667 28.4709799554566  17.2770833333333 30.8764142538976  C 18.0145833333333 31.2457906458797  18.8888888888889 30.7424721603563  19 29.9471046770601  L 19 4.80741648106904  Z " fill-rule="nonzero" fill="#7f7f7f" stroke="none" transform="matrix(1 0 0 1 386 892 )" />
  </g>
</svg>