<?xml version="1.0" encoding="utf-8"?>
<svg version="1.1" xmlns:xlink="http://www.w3.org/1999/xlink" width="150px" height="150px" xmlns="http://www.w3.org/2000/svg">
  <g transform="matrix(1 0 0 1 -85 -159 )">
    <path d="M 160 159  C 202 159  235 192  235 234  C 235 276  202 309  160 309  C 118 309  85 276  85 234  C 85 192  118 159  160 159  Z " fill-rule="nonzero" fill="#ffffff" stroke="none" />
    <path d="M 160 159.5  C 201.72 159.5  234.5 192.28  234.5 234  C 234.5 275.72  201.72 308.5  160 308.5  C 118.28 308.5  85.5 275.72  85.5 234  C 85.5 192.28  118.28 159.5  160 159.5  Z " stroke-width="1" stroke="#797979" fill="none" />
  </g>
</svg>