<?xml version="1.0" encoding="utf-8"?>
<svg version="1.1" xmlns:xlink="http://www.w3.org/1999/xlink" width="23px" height="30px" xmlns="http://www.w3.org/2000/svg">
  <g transform="matrix(1 0 0 1 -155 -79 )">
    <path d="M 6.38888888888889 15  L 21.0833333333333 15  C 21.6157407407407 15  22.068287037037 15.1822916666667  22.4409722222222 15.546875  C 22.8136574074074 15.9114583333333  23 16.3541666666667  23 16.875  L 23 28.125  C 23 28.6458333333333  22.8136574074074 29.0885416666667  22.4409722222222 29.453125  C 22.068287037037 29.8177083333333  21.6157407407407 30  21.0833333333333 30  L 1.91666666666667 30  C 1.38425925925926 30  0.931712962962963 29.8177083333333  0.559027777777778 29.453125  C 0.186342592592593 29.0885416666667  0 28.6458333333333  0 28.125  L 0 16.875  C 0 16.3541666666667  0.186342592592593 15.9114583333333  0.559027777777778 15.546875  C 0.931712962962963 15.1822916666667  1.38425925925926 15  1.91666666666667 15  L 2.55555555555556 15  L 2.55555555555556 8.75  C 2.55555555555556 6.34114583333333  3.43070023148148 4.28059895833333  5.18098958333333 2.568359375  C 6.93127893518519 0.856119791666669  9.03761574074074 0  11.5 0  C 13.9623842592593 0  16.0687210648148 0.856119791666669  17.8190104166667 2.568359375  C 19.5692997685185 4.28059895833333  20.4444444444444 6.34114583333333  20.4444444444444 8.75  C 20.4444444444444 9.08854166666666  20.3179976851852 9.38151041666666  20.0651041666667 9.62890625  C 19.8122106481481 9.87630208333333  19.5127314814815 10  19.1666666666667 10  L 17.8888888888889 10  C 17.5428240740741 10  17.2433449074074 9.87630208333333  16.9904513888889 9.62890625  C 16.7375578703704 9.38151041666666  16.6111111111111 9.08854166666666  16.6111111111111 8.75  C 16.6111111111111 7.36979166666667  16.1119791666667 6.19140625  15.1137152777778 5.21484375  C 14.1154513888889 4.23828125  12.9108796296296 3.75  11.5 3.75  C 10.0891203703704 3.75  8.88454861111111 4.23828125  7.88628472222222 5.21484375  C 6.88802083333333 6.19140625  6.38888888888889 7.36979166666667  6.38888888888889 8.75  L 6.38888888888889 15  Z " fill-rule="nonzero" fill="#aaaaaa" stroke="none" transform="matrix(1 0 0 1 155 79 )" />
  </g>
</svg>