<?xml version="1.0" encoding="utf-8"?>
<svg version="1.1" xmlns:xlink="http://www.w3.org/1999/xlink" width="19px" height="19px" xmlns="http://www.w3.org/2000/svg">
  <g transform="matrix(1 0 0 1 -327 -12 )">
    <path d="M 14.7200520833333 7.91666666666667  C 14.7200520833333 8.13107638888889  14.6417100694444 8.31662326388889  14.4850260416667 8.47330729166667  L 9.26497395833333 13.693359375  C 9.10828993055556 13.8500434027778  8.92274305555556 13.9283854166667  8.70833333333333 13.9283854166667  C 8.49392361111111 13.9283854166667  8.30837673611111 13.8500434027778  8.15169270833333 13.693359375  L 4.51497395833333 10.056640625  C 4.35828993055556 9.89995659722222  4.27994791666667 9.71440972222222  4.27994791666667 9.5  C 4.27994791666667 9.28559027777778  4.35828993055556 9.10004340277778  4.51497395833333 8.943359375  L 5.77669270833333 7.681640625  C 5.93337673611111 7.52495659722222  6.11892361111111 7.44661458333333  6.33333333333333 7.44661458333333  C 6.54774305555556 7.44661458333333  6.73328993055556 7.52495659722222  6.88997395833333 7.681640625  L 8.70833333333333 9.5  L 12.1100260416667 6.09830729166667  C 12.2667100694444 5.94162326388889  12.4522569444444 5.86328125  12.6666666666667 5.86328125  C 12.8810763888889 5.86328125  13.0666232638889 5.94162326388889  13.2233072916667 6.09830729166667  L 14.4850260416667 7.36002604166667  C 14.6417100694444 7.51671006944444  14.7200520833333 7.70225694444444  14.7200520833333 7.91666666666667  Z M 15.326171875 12.876953125  C 15.9281684027778 11.8461371527778  16.2291666666667 10.7204861111111  16.2291666666667 9.5  C 16.2291666666667 8.27951388888889  15.9281684027778 7.15386284722222  15.326171875 6.123046875  C 14.7241753472222 5.09223090277778  13.9077690972222 4.27582465277778  12.876953125 3.673828125  C 11.8461371527778 3.07183159722222  10.7204861111111 2.77083333333333  9.5 2.77083333333333  C 8.27951388888889 2.77083333333333  7.15386284722222 3.07183159722222  6.123046875 3.673828125  C 5.09223090277778 4.27582465277778  4.27582465277778 5.09223090277778  3.673828125 6.123046875  C 3.07183159722222 7.15386284722222  2.77083333333333 8.27951388888889  2.77083333333333 9.5  C 2.77083333333333 10.7204861111111  3.07183159722222 11.8461371527778  3.673828125 12.876953125  C 4.27582465277778 13.9077690972222  5.09223090277778 14.7241753472222  6.123046875 15.326171875  C 7.15386284722222 15.9281684027778  8.27951388888889 16.2291666666667  9.5 16.2291666666667  C 10.7204861111111 16.2291666666667  11.8461371527778 15.9281684027778  12.876953125 15.326171875  C 13.9077690972222 14.7241753472222  14.7241753472222 13.9077690972222  15.326171875 12.876953125  Z M 17.7259114583333 4.7314453125  C 18.5753038194444 6.18695746527778  19 7.77647569444444  19 9.5  C 19 11.2235243055556  18.5753038194444 12.8130425347222  17.7259114583333 14.2685546875  C 16.8765190972222 15.7240668402778  15.7240668402778 16.8765190972222  14.2685546875 17.7259114583333  C 12.8130425347222 18.5753038194444  11.2235243055556 19  9.5 19  C 7.77647569444444 19  6.18695746527778 18.5753038194444  4.7314453125 17.7259114583333  C 3.27593315972222 16.8765190972222  2.12348090277778 15.7240668402778  1.27408854166667 14.2685546875  C 0.424696180555555 12.8130425347222  0 11.2235243055556  0 9.5  C 0 7.77647569444444  0.424696180555555 6.18695746527778  1.27408854166667 4.7314453125  C 2.12348090277778 3.27593315972222  3.27593315972222 2.12348090277778  4.7314453125 1.27408854166667  C 6.18695746527778 0.424696180555554  7.77647569444444 0  9.5 0  C 11.2235243055556 0  12.8130425347222 0.424696180555554  14.2685546875 1.27408854166667  C 15.7240668402778 2.12348090277778  16.8765190972222 3.27593315972222  17.7259114583333 4.7314453125  Z " fill-rule="nonzero" fill="#1becec" stroke="none" transform="matrix(1 0 0 1 327 12 )" />
  </g>
</svg>