<?xml version="1.0" encoding="utf-8"?>
<svg version="1.1" xmlns:xlink="http://www.w3.org/1999/xlink" width="204px" height="107px" xmlns="http://www.w3.org/2000/svg">
  <g transform="matrix(1 0 0 1 -21 -173 )">
    <path d="M 21 173  L 225 173  L 225 280  L 21 280  L 21 173  " fill-rule="nonzero" fill="#cccccc" stroke="none" />
    <path d="M 28 180  L 218 180  L 218 273  L 28 273  L 28 180  " fill-rule="nonzero" fill="#ffffff" stroke="none" />
    <path d="M 135.105 205.1  C 130.611 205.1  127.08 201.569  127.08 197.075  C 127.08 192.581  130.611 189.05  135.105 189.05  C 139.599 189.05  143.13 192.581  143.13 197.075  C 143.13 201.569  139.599 205.1  135.105 205.1  " fill-rule="nonzero" fill="#cccccc" stroke="none" />
    <path d="M 31 271  L 31 222.6  L 77.25 200.6  L 142 243.305882352941  L 179 213.8  L 216 243.305882352941  L 216 271  L 31 271  " fill-rule="nonzero" fill="#169bd5" stroke="none" />
  </g>
</svg>