<?xml version="1.0" encoding="utf-8"?>
<svg version="1.1" xmlns:xlink="http://www.w3.org/1999/xlink" width="30px" height="26px" xmlns="http://www.w3.org/2000/svg">
  <g transform="matrix(1 0 0 1 -108 -129 )">
    <path d="M 13.5036057692308 2.23066104078762  C 13.7319711538462 2.46225972808251  13.8461538461538 2.73652133145804  14 3.0534458509142  L 14 22.9465541490858  C 13.8461538461538 23.263478668542  13.7319711538462 23.5377402719175  13.5036057692308 23.7693389592124  C 13.2752403846154 24.0009376465073  13.0048076923077 24.1167369901547  12.6923076923077 24.1167369901547  C 12.3798076923077 24.1167369901547  12.109375 24.0009376465073  11.8810096153846 23.7693389592124  L 5.87740384615385 17.6807313642757  L 1.15384615384615 17.6807313642757  C 0.841346153846154 17.6807313642757  0.570913461538462 17.5649320206282  0.342548076923077 17.3333333333333  C 0.114182692307692 17.1017346460384  0 16.8274730426629  0 16.5105485232068  L 0 9.48945147679325  C 0 9.17252695733708  0.114182692307692 8.89826535396155  0.342548076923077 8.66666666666667  C 0.570913461538462 8.43506797937177  0.841346153846154 8.31926863572433  1.15384615384615 8.31926863572433  L 5.87740384615385 8.31926863572433  L 11.8810096153846 2.23066104078762  C 12.109375 1.99906235349273  12.3798076923077 1.88326300984529  12.6923076923077 1.88326300984529  C 13.0048076923077 1.88326300984529  13.2752403846154 1.99906235349273  13.5036057692308 2.23066104078762  Z M 20.0030048076923 10.4036568213783  C 20.5138221153846 11.2081575246132  20.7692307692308 12.0736052508204  20.7692307692308 13  C 20.7692307692308 13.9263947491796  20.5138221153846 14.7887951242382  20.0030048076923 15.5872011251758  C 19.4921875 16.3856071261134  18.8161057692308 16.9554617909048  17.9747596153846 17.2967651195499  C 17.8545673076923 17.3577121425223  17.7043269230769 17.3881856540084  17.5240384615385 17.3881856540084  C 17.2115384615385 17.3881856540084  16.9411057692308 17.2754336615096  16.7127403846154 17.049929676512  C 16.484375 16.8244256915143  16.3701923076923 16.5471167369902  16.3701923076923 16.2180028129395  C 16.3701923076923 15.9620253164557  16.4423076923077 15.7456633849039  16.5865384615385 15.5689170182841  C 16.7307692307692 15.3921706516643  16.9050480769231 15.2398030942335  17.109375 15.1118143459916  C 17.3137019230769 14.9838255977496  17.5180288461538 14.8436474449133  17.7223557692308 14.6912798874824  C 17.9266826923077 14.5389123300516  18.1009615384615 14.3195030473511  18.2451923076923 14.0330520393812  C 18.3894230769231 13.7466010314112  18.4615384615385 13.4022503516174  18.4615384615385 13  C 18.4615384615385 12.5977496483826  18.3894230769231 12.2533989685888  18.2451923076923 11.9669479606188  C 18.1009615384615 11.6804969526489  17.9266826923077 11.4610876699484  17.7223557692308 11.3087201125176  C 17.5180288461538 11.1563525550867  17.3137019230769 11.0161744022504  17.109375 10.8881856540084  C 16.9050480769231 10.7601969057665  16.7307692307692 10.6078293483357  16.5865384615385 10.4310829817159  C 16.4423076923077 10.2543366150961  16.3701923076923 10.0379746835443  16.3701923076923 9.78199718706048  C 16.3701923076923 9.45288326300984  16.484375 9.1755743084857  16.7127403846154 8.95007032348805  C 16.9411057692308 8.72456633849039  17.2115384615385 8.61181434599156  17.5240384615385 8.61181434599156  C 17.7043269230769 8.61181434599156  17.8545673076923 8.64228785747773  17.9747596153846 8.70323488045007  C 18.8161057692308 9.0323488045007  19.4921875 9.59915611814346  20.0030048076923 10.4036568213783  Z M 23.8521634615385 7.83473980309423  C 24.8737980769231 9.41326769807782  25.3846153846154 11.1350210970464  25.3846153846154 13  C 25.3846153846154 14.8649789029536  24.8737980769231 16.5867323019222  23.8521634615385 18.1652601969058  C 22.8305288461539 19.7437880918894  21.4783653846154 20.892639474918  19.7956730769231 21.6118143459916  C 19.6394230769231 21.6727613689639  19.4891826923077 21.7032348804501  19.3449519230769 21.7032348804501  C 19.0204326923077 21.7032348804501  18.7439903846154 21.5874355368026  18.515625 21.3558368495077  C 18.2872596153846 21.1242381622128  18.1730769230769 20.8499765588373  18.1730769230769 20.5330520393812  C 18.1730769230769 20.0576652601969  18.4074519230769 19.6980778246601  18.8762019230769 19.4542897327707  C 19.5492788461539 19.1007969995312  20.0060096153846 18.8326300984529  20.2463942307692 18.6497890295359  C 21.1358173076923 17.9915611814346  21.8299278846154 17.1657290201594  22.3287259615385 16.1722925457103  C 22.8275240384615 15.1788560712611  23.0769230769231 14.121425222691  23.0769230769231 13  C 23.0769230769231 11.878574777309  22.8275240384615 10.8211439287389  22.3287259615385 9.82770745428973  C 21.8299278846154 8.8342709798406  21.1358173076923 8.0084388185654  20.2463942307692 7.35021097046413  C 20.0060096153846 7.16736990154712  19.5492788461539 6.89920300046882  18.8762019230769 6.54571026722925  C 18.4074519230769 6.30192217533989  18.1730769230769 5.9423347398031  18.1730769230769 5.46694796061885  C 18.1730769230769 5.15002344116268  18.2872596153846 4.87576183778715  18.515625 4.64416315049226  C 18.7439903846154 4.41256446319737  19.0144230769231 4.29676511954993  19.3269230769231 4.29676511954993  C 19.4831730769231 4.29676511954993  19.6394230769231 4.3272386310361  19.7956730769231 4.38818565400844  C 21.4783653846154 5.10736052508204  22.8305288461539 6.25621190811064  23.8521634615385 7.83473980309423  Z M 27.7103365384615 5.27496483825598  C 29.2367788461538 7.62142522269104  30 10.1964369432724  30 13  C 30 15.8035630567276  29.2367788461538 18.3785747773089  27.7103365384615 20.725035161744  C 26.1838942307692 23.0714955461791  24.1526442307692 24.7993436474449  21.6165865384615 25.9085794655415  C 21.4603365384615 25.9695264885138  21.3040865384615 26  21.1478365384615 26  C 20.8353365384615 26  20.5649038461538 25.8842006563526  20.3365384615385 25.6526019690577  C 20.1081730769231 25.4210032817628  19.9939903846154 25.1467416783872  19.9939903846154 24.8298171589311  C 19.9939903846154 24.3909985935302  20.2283653846154 24.0314111579934  20.6971153846154 23.7510548523207  C 20.78125 23.7022972339428  20.9164663461538 23.6383028598218  21.1027644230769 23.5590717299578  C 21.2890625 23.4798406000938  21.4242788461539 23.4158462259728  21.5084134615385 23.3670886075949  C 22.0612980769231 23.0623534927332  22.5540865384615 22.7515236755743  22.9867788461538 22.4345991561181  C 24.4651442307692 21.3253633380216  25.6189903846154 19.9418659165495  26.4483173076923 18.2841068917018  C 27.2776442307692 16.6263478668542  27.6923076923077 14.8649789029536  27.6923076923077 13  C 27.6923076923077 11.1350210970464  27.2776442307692 9.37365213314581  26.4483173076923 7.71589310829817  C 25.6189903846154 6.05813408345054  24.4651442307692 4.67463666197843  22.9867788461538 3.56540084388186  C 22.5540865384615 3.24847632442569  22.0612980769231 2.93764650726676  21.5084134615385 2.63291139240506  C 21.4242788461539 2.58415377402719  21.2890625 2.52015939990623  21.1027644230769 2.44092827004219  C 20.9164663461538 2.36169714017815  20.78125 2.29770276605719  20.6971153846154 2.24894514767933  C 20.2283653846154 1.96858884200656  19.9939903846154 1.60900140646976  19.9939903846154 1.17018284106892  C 19.9939903846154 0.853258321612749  20.1081730769231 0.578996718237222  20.3365384615385 0.347398030942334  C 20.5649038461538 0.115799343647444  20.8353365384615 0  21.1478365384615 0  C 21.3040865384615 0  21.4603365384615 0.0304735114861681  21.6165865384615 0.0914205344585099  C 24.1526442307692 1.20065635255508  26.1838942307692 2.92850445382091  27.7103365384615 5.27496483825598  Z " fill-rule="nonzero" fill="#000000" stroke="none" transform="matrix(1 0 0 1 108 129 )" />
  </g>
</svg>