<?xml version="1.0" encoding="utf-8"?>
<svg version="1.1" xmlns:xlink="http://www.w3.org/1999/xlink" width="30px" height="30px" xmlns="http://www.w3.org/2000/svg">
  <g transform="matrix(1 0 0 1 -195 -367 )">
    <path d="M 22.0703125 20.3125  C 22.3177083333333 20.0651041666667  22.44140625 19.765625  22.44140625 19.4140625  C 22.44140625 19.0755208333333  22.3177083333333 18.7825520833333  22.0703125 18.53515625  L 18.53515625 15  L 22.0703125 11.46484375  C 22.3177083333333 11.2174479166667  22.44140625 10.9244791666667  22.44140625 10.5859375  C 22.44140625 10.234375  22.3177083333333 9.93489583333333  22.0703125 9.6875  L 20.3125 7.9296875  C 20.0651041666667 7.68229166666667  19.765625 7.55859375  19.4140625 7.55859375  C 19.0755208333333 7.55859375  18.7825520833333 7.68229166666667  18.53515625 7.9296875  L 15 11.46484375  L 11.46484375 7.9296875  C 11.2174479166667 7.68229166666667  10.9244791666667 7.55859375  10.5859375 7.55859375  C 10.234375 7.55859375  9.93489583333333 7.68229166666667  9.6875 7.9296875  L 7.9296875 9.6875  C 7.68229166666667 9.93489583333333  7.55859375 10.234375  7.55859375 10.5859375  C 7.55859375 10.9244791666667  7.68229166666667 11.2174479166667  7.9296875 11.46484375  L 11.46484375 15  L 7.9296875 18.53515625  C 7.68229166666667 18.7825520833333  7.55859375 19.0755208333333  7.55859375 19.4140625  C 7.55859375 19.765625  7.68229166666667 20.0651041666667  7.9296875 20.3125  L 9.6875 22.0703125  C 9.93489583333333 22.3177083333333  10.234375 22.44140625  10.5859375 22.44140625  C 10.9244791666667 22.44140625  11.2174479166667 22.3177083333333  11.46484375 22.0703125  L 15 18.53515625  L 18.53515625 22.0703125  C 18.7825520833333 22.3177083333333  19.0755208333333 22.44140625  19.4140625 22.44140625  C 19.765625 22.44140625  20.0651041666667 22.3177083333333  20.3125 22.0703125  L 22.0703125 20.3125  Z M 27.98828125 7.470703125  C 29.3294270833333 9.76888020833333  30 12.2786458333333  30 15  C 30 17.7213541666667  29.3294270833333 20.2311197916667  27.98828125 22.529296875  C 26.6471354166667 24.8274739583333  24.8274739583333 26.6471354166667  22.529296875 27.98828125  C 20.2311197916667 29.3294270833333  17.7213541666667 30  15 30  C 12.2786458333333 30  9.76888020833333 29.3294270833333  7.470703125 27.98828125  C 5.17252604166667 26.6471354166667  3.35286458333333 24.8274739583333  2.01171875 22.529296875  C 0.670572916666667 20.2311197916667  0 17.7213541666667  0 15  C 0 12.2786458333333  0.670572916666667 9.76888020833333  2.01171875 7.470703125  C 3.35286458333333 5.17252604166667  5.17252604166667 3.35286458333333  7.470703125 2.01171875  C 9.76888020833333 0.670572916666664  12.2786458333333 0  15 0  C 17.7213541666667 0  20.2311197916667 0.670572916666664  22.529296875 2.01171875  C 24.8274739583333 3.35286458333333  26.6471354166667 5.17252604166667  27.98828125 7.470703125  Z " fill-rule="nonzero" fill="#000000" stroke="none" transform="matrix(1 0 0 1 195 367 )" />
  </g>
</svg>