<?xml version="1.0" encoding="utf-8"?>
<svg version="1.1" xmlns:xlink="http://www.w3.org/1999/xlink" width="15px" height="13px" xmlns="http://www.w3.org/2000/svg">
  <g transform="matrix(1 0 0 1 -907 -61 )">
    <path d="M 6.75180288461538 1.11533052039381  C 6.86598557692308 1.23112986404126  6.92307692307692 1.36826066572902  6.92307692307692 1.5267229254571  L 6.92307692307692 11.4732770745429  C 6.92307692307692 11.631739334271  6.86598557692308 11.7688701359587  6.75180288461538 11.8846694796062  C 6.63762019230769 12.0004688232536  6.50240384615385 12.0583684950774  6.34615384615385 12.0583684950774  C 6.18990384615385 12.0583684950774  6.0546875 12.0004688232536  5.94050480769231 11.8846694796062  L 2.93870192307692 8.84036568213783  L 0.576923076923077 8.84036568213783  C 0.420673076923077 8.84036568213783  0.285456730769231 8.78246601031411  0.171274038461538 8.66666666666667  C 0.0570913461538462 8.55086732301922  0 8.41373652133146  0 8.25527426160338  L 0 4.74472573839662  C 0 4.58626347866854  0.0570913461538462 4.44913267698078  0.171274038461538 4.33333333333333  C 0.285456730769231 4.21753398968589  0.420673076923077 4.15963431786217  0.576923076923077 4.15963431786217  L 2.93870192307692 4.15963431786217  L 5.94050480769231 1.11533052039381  C 6.0546875 0.999531176746367  6.18990384615385 0.941631504922645  6.34615384615385 0.941631504922645  C 6.50240384615385 0.941631504922645  6.63762019230769 0.999531176746367  6.75180288461538 1.11533052039381  Z M 10.0015024038462 5.20182841068917  C 10.2569110576923 5.60407876230661  10.3846153846154 6.03680262541022  10.3846153846154 6.5  C 10.3846153846154 6.96319737458978  10.2569110576923 7.39439756211908  10.0015024038462 7.7936005625879  C 9.74609375 8.19280356305672  9.40805288461539 8.47773089545241  8.98737980769231 8.64838255977497  C 8.92728365384616 8.67885607126113  8.85216346153846 8.69409282700422  8.76201923076923 8.69409282700422  C 8.60576923076923 8.69409282700422  8.47055288461539 8.6377168307548  8.35637019230769 8.52496483825598  C 8.2421875 8.41221284575715  8.18509615384615 8.27355836849508  8.18509615384615 8.10900140646976  C 8.18509615384615 7.98101265822785  8.22115384615385 7.87283169245194  8.29326923076923 7.78445850914205  C 8.36538461538461 7.69608532583216  8.45252403846154 7.61990154711674  8.5546875 7.55590717299578  C 8.65685096153846 7.49191279887482  8.75901442307692 7.42182372245663  8.86117788461539 7.34563994374121  C 8.96334134615385 7.26945616502578  9.05048076923077 7.15975152367557  9.12259615384615 7.01652601969058  C 9.19471153846154 6.87330051570558  9.23076923076923 6.70112517580872  9.23076923076923 6.5  C 9.23076923076923 6.29887482419128  9.19471153846154 6.12669948429442  9.12259615384615 5.98347398030942  C 9.05048076923077 5.84024847632443  8.96334134615385 5.73054383497421  8.86117788461539 5.65436005625879  C 8.75901442307692 5.57817627754337  8.65685096153846 5.50808720112518  8.5546875 5.44409282700422  C 8.45252403846154 5.38009845288326  8.36538461538461 5.30391467416784  8.29326923076923 5.21554149085795  C 8.22115384615385 5.12716830754805  8.18509615384615 5.01898734177215  8.18509615384615 4.89099859353024  C 8.18509615384615 4.72644163150492  8.2421875 4.58778715424285  8.35637019230769 4.47503516174402  C 8.47055288461539 4.36228316924519  8.60576923076923 4.30590717299578  8.76201923076923 4.30590717299578  C 8.85216346153846 4.30590717299578  8.92728365384616 4.32114392873887  8.98737980769231 4.35161744022504  C 9.40805288461539 4.51617440225035  9.74609375 4.79957805907173  10.0015024038462 5.20182841068917  Z M 11.9260817307692 3.91736990154712  C 12.4368990384615 4.70663384903891  12.6923076923077 5.56751054852321  12.6923076923077 6.5  C 12.6923076923077 7.43248945147679  12.4368990384615 8.29336615096109  11.9260817307692 9.08263009845288  C 11.4152644230769 9.87189404594468  10.7391826923077 10.446319737459  9.89783653846154 10.8059071729958  C 9.81971153846154 10.8363806844819  9.74459134615385 10.851617440225  9.67247596153846 10.851617440225  C 9.51021634615385 10.851617440225  9.37199519230769 10.7937177684013  9.2578125 10.6779184247539  C 9.14362980769231 10.5621190811064  9.08653846153846 10.4249882794187  9.08653846153846 10.2665260196906  C 9.08653846153846 10.0288326300985  9.20372596153846 9.84903891233005  9.43810096153846 9.72714486638537  C 9.77463942307693 9.55039849976559  10.0030048076923 9.41631504922644  10.1231971153846 9.32489451476793  C 10.5679086538462 8.9957805907173  10.9149639423077 8.5828645100797  11.1643629807692 8.08614627285513  C 11.4137620192308 7.58942803563057  11.5384615384615 7.06071261134552  11.5384615384615 6.5  C 11.5384615384615 5.93928738865448  11.4137620192308 5.41057196436943  11.1643629807692 4.91385372714487  C 10.9149639423077 4.4171354899203  10.5679086538462 4.0042194092827  10.1231971153846 3.67510548523207  C 10.0030048076923 3.58368495077356  9.77463942307693 3.44960150023441  9.43810096153846 3.27285513361463  C 9.20372596153846 3.15096108766995  9.08653846153846 2.97116736990155  9.08653846153846 2.73347398030942  C 9.08653846153846 2.57501172058134  9.14362980769231 2.43788091889358  9.2578125 2.32208157524613  C 9.37199519230769 2.20628223159869  9.50721153846154 2.14838255977496  9.66346153846154 2.14838255977496  C 9.74158653846154 2.14838255977496  9.81971153846154 2.16361931551805  9.89783653846154 2.19409282700422  C 10.7391826923077 2.55368026254102  11.4152644230769 3.12810595405532  11.9260817307692 3.91736990154712  Z M 13.8551682692308 2.63748241912799  C 14.6183894230769 3.81071261134552  15 5.09821847163619  15 6.5  C 15 7.90178152836381  14.6183894230769 9.18928738865447  13.8551682692308 10.362517580872  C 13.0919471153846 11.5357477730895  12.0763221153846 12.3996718237225  10.8082932692308 12.9542897327707  C 10.7301682692308 12.9847632442569  10.6520432692308 13  10.5739182692308 13  C 10.4176682692308 13  10.2824519230769 12.9421003281763  10.1682692307692 12.8263009845288  C 10.0540865384615 12.7105016408814  9.99699519230769 12.5733708391936  9.99699519230769 12.4149085794655  C 9.99699519230769 12.1954992967651  10.1141826923077 12.0157055789967  10.3485576923077 11.8755274261603  C 10.390625 11.8511486169714  10.4582331730769 11.8191514299109  10.5513822115385 11.7795358649789  C 10.64453125 11.7399203000469  10.7121394230769 11.7079231129864  10.7542067307692 11.6835443037975  C 11.0306490384615 11.5311767463666  11.2770432692308 11.3757618377872  11.4933894230769 11.2172995780591  C 12.2325721153846 10.6626816690108  12.8094951923077 9.97093295827473  13.2241586538462 9.14205344585091  C 13.6388221153846 8.3131739334271  13.8461538461538 7.43248945147679  13.8461538461538 6.5  C 13.8461538461538 5.56751054852321  13.6388221153846 4.6868260665729  13.2241586538462 3.85794655414909  C 12.8094951923077 3.02906704172527  12.2325721153846 2.33731833098922  11.4933894230769 1.78270042194093  C 11.2770432692308 1.62423816221285  11.0306490384615 1.46882325363338  10.7542067307692 1.31645569620253  C 10.7121394230769 1.29207688701359  10.64453125 1.26007969995312  10.5513822115385 1.2204641350211  C 10.4582331730769 1.18084857008908  10.390625 1.1488513830286  10.3485576923077 1.12447257383966  C 10.1141826923077 0.98429442100328  9.99699519230769 0.80450070323488  9.99699519230769 0.585091420534459  C 9.99699519230769 0.426629160806374  10.0540865384615 0.289498359118611  10.1682692307692 0.173699015471167  C 10.2824519230769 0.0578996718237219  10.4176682692308 0  10.5739182692308 0  C 10.6520432692308 0  10.7301682692308 0.015236755743084  10.8082932692308 0.045710267229255  C 12.0763221153846 0.600328176277542  13.0919471153846 1.46425222691045  13.8551682692308 2.63748241912799  Z " fill-rule="nonzero" fill="#000000" stroke="none" transform="matrix(1 0 0 1 907 61 )" />
  </g>
</svg>