<?xml version="1.0" encoding="utf-8"?>
<svg version="1.1" xmlns:xlink="http://www.w3.org/1999/xlink" width="5px" height="10px" xmlns="http://www.w3.org/2000/svg">
  <g transform="matrix(1 0 0 1 -18 -46 )">
    <path d="M 4.91408934707904 0.601202404809619  C 4.97136311569301 0.668002672010687  5 0.744822979291916  5 0.831663326653307  C 5 0.918503674014696  4.97136311569301 0.995323981295925  4.91408934707904 1.06212424849699  L 1.53780068728522 5  L 4.91408934707904 8.93787575150301  C 4.97136311569301 9.00467601870407  5 9.0814963259853  5 9.16833667334669  C 5 9.25517702070808  4.97136311569301 9.33199732798931  4.91408934707904 9.39879759519038  L 4.48453608247423 9.8997995991984  C 4.42726231386025 9.96659986639947  4.36139747995418 10  4.28694158075601 10  C 4.21248568155785 10  4.14662084765178 9.96659986639947  4.0893470790378 9.8997995991984  L 0.0859106529209622 5.23046092184369  C 0.0286368843069874 5.16366065464262  0 5.08684034736139  0 5  C 0 4.91315965263861  0.0286368843069874 4.83633934535738  0.0859106529209622 4.76953907815631  L 4.0893470790378 0.100200400801603  C 4.14662084765178 0.0334001336005341  4.21248568155785 0  4.28694158075601 0  C 4.36139747995418 0  4.42726231386025 0.0334001336005341  4.48453608247423 0.100200400801603  L 4.91408934707904 0.601202404809619  Z " fill-rule="nonzero" fill="#000000" stroke="none" transform="matrix(1 0 0 1 18 46 )" />
  </g>
</svg>